{"asset":{"generator":"glTF-Transform v4.2.1","version":"2.0"},"accessors":[{"type":"VEC3","componentType":5126,"count":7124,"max":[7.716586112976074,39.0302619934082,8.818946838378906],"min":[-7.164873123168945,0,-7.095058917999268],"bufferView":0,"byteOffset":0},{"type":"VEC3","componentType":5126,"count":7124,"bufferView":0,"byteOffset":12},{"type":"VEC2","componentType":5126,"count":7124,"bufferView":0,"byteOffset":24},{"type":"SCALAR","componentType":5123,"count":33336,"bufferView":1,"byteOffset":0},{"type":"SCALAR","componentType":5123,"count":22932,"bufferView":1,"byteOffset":66672},{"type":"VEC3","componentType":5126,"count":15288,"max":[8.650520324707031,40.37445068359375,9.497613906860352],"min":[-8.340940475463867,0.2426084727048874,-8.239294052124023],"bufferView":2,"byteOffset":0},{"type":"VEC3","componentType":5126,"count":15288,"bufferView":2,"byteOffset":12},{"type":"VEC2","componentType":5126,"count":15288,"bufferView":2,"byteOffset":24}],"bufferViews":[{"buffer":0,"byteOffset":0,"byteLength":227968,"byteStride":32,"target":34962},{"buffer":0,"byteOffset":227968,"byteLength":112536,"target":34963},{"buffer":0,"byteOffset":340504,"byteLength":489216,"byteStride":32,"target":34962}],"samplers":[{"magFilter":9729,"minFilter":9987,"wrapS":10497,"wrapT":10497},{"magFilter":9729,"minFilter":9987,"wrapS":33071,"wrapT":33071}],"textures":[{"source":1,"sampler":0},{"source":2,"sampler":0},{"source":0,"sampler":0},{"source":3,"sampler":1}],"images":[{"mimeType":"image/png","uri":"texture-be24b5c0a3104eba.png"},{"mimeType":"image/png","uri":"texture-614ef034a298fef1.png"},{"mimeType":"image/png","uri":"texture-00e12de668fe6669.png"},{"mimeType":"image/png","uri":"texture-713a5cc87d11921a.png"}],"buffers":[{"uri":"pine-small.bin","byteLength":829720}],"materials":[{"name":"branches","pbrMetallicRoughness":{"metallicFactor":0,"baseColorTexture":{"index":0},"metallicRoughnessTexture":{"index":2}},"normalTexture":{"index":1}},{"name":"leaves","alphaMode":"MASK","alphaCutoff":0.3,"doubleSided":true,"pbrMetallicRoughness":{"metallicFactor":0,"baseColorTexture":{"index":3}}}],"meshes":[{"primitives":[{"attributes":{"POSITION":0,"NORMAL":1,"TEXCOORD_0":2},"mode":4,"material":0,"indices":3}]},{"primitives":[{"attributes":{"POSITION":5,"NORMAL":6,"TEXCOORD_0":7},"mode":4,"material":1,"indices":4}]}],"nodes":[{"name":"Tree","children":[1,2]},{"mesh":0},{"mesh":1}],"scenes":[{"name":"AuxScene","nodes":[0]}],"scene":0}