{"asset":{"generator":"glTF-Transform v4.2.1","version":"2.0"},"accessors":[{"type":"VEC3","componentType":5126,"count":6431,"max":[12.949511528015137,49.77322006225586,12.251545906066895],"min":[-13.936849594116211,0,-15.440396308898926],"bufferView":0,"byteOffset":0},{"type":"VEC3","componentType":5126,"count":6431,"bufferView":0,"byteOffset":12},{"type":"VEC2","componentType":5126,"count":6431,"bufferView":0,"byteOffset":24},{"type":"SCALAR","componentType":5123,"count":30096,"bufferView":1,"byteOffset":0},{"type":"SCALAR","componentType":5123,"count":29520,"bufferView":1,"byteOffset":60192},{"type":"VEC3","componentType":5126,"count":19680,"max":[14.011940002441406,51.10086441040039,13.283170700073242],"min":[-14.879291534423828,5.754335403442383,-16.68399429321289],"bufferView":2,"byteOffset":0},{"type":"VEC3","componentType":5126,"count":19680,"bufferView":2,"byteOffset":12},{"type":"VEC2","componentType":5126,"count":19680,"bufferView":2,"byteOffset":24}],"bufferViews":[{"buffer":0,"byteOffset":0,"byteLength":205792,"byteStride":32,"target":34962},{"buffer":0,"byteOffset":205792,"byteLength":119232,"target":34963},{"buffer":0,"byteOffset":325024,"byteLength":629760,"byteStride":32,"target":34962}],"samplers":[{"magFilter":9729,"minFilter":9987,"wrapS":10497,"wrapT":10497},{"magFilter":9729,"minFilter":9987,"wrapS":33071,"wrapT":33071}],"textures":[{"source":1,"sampler":0},{"source":2,"sampler":0},{"source":0,"sampler":0},{"source":3,"sampler":1}],"images":[{"mimeType":"image/png","uri":"texture-be24b5c0a3104eba.png"},{"mimeType":"image/png","uri":"texture-614ef034a298fef1.png"},{"mimeType":"image/png","uri":"texture-00e12de668fe6669.png"},{"mimeType":"image/png","uri":"texture-713a5cc87d11921a.png"}],"buffers":[{"uri":"pine-medium.bin","byteLength":954784}],"materials":[{"name":"branches","pbrMetallicRoughness":{"metallicFactor":0,"baseColorTexture":{"index":0},"metallicRoughnessTexture":{"index":2}},"normalTexture":{"index":1}},{"name":"leaves","alphaMode":"MASK","alphaCutoff":0.3,"doubleSided":true,"pbrMetallicRoughness":{"metallicFactor":0,"baseColorTexture":{"index":3}}}],"meshes":[{"primitives":[{"attributes":{"POSITION":0,"NORMAL":1,"TEXCOORD_0":2},"mode":4,"material":0,"indices":3}]},{"primitives":[{"attributes":{"POSITION":5,"NORMAL":6,"TEXCOORD_0":7},"mode":4,"material":1,"indices":4}]}],"nodes":[{"name":"Tree","children":[1,2]},{"mesh":0},{"mesh":1}],"scenes":[{"name":"AuxScene","nodes":[0]}],"scene":0}