{"asset":{"generator":"glTF-Transform v4.2.1","version":"2.0"},"accessors":[{"type":"VEC3","componentType":5126,"count":7817,"max":[16.64267921447754,65.12843322753906,21.37108612060547],"min":[-20.456586837768555,0,-18.668224334716797],"bufferView":0,"byteOffset":0},{"type":"VEC3","componentType":5126,"count":7817,"bufferView":0,"byteOffset":12},{"type":"VEC2","componentType":5126,"count":7817,"bufferView":0,"byteOffset":24},{"type":"SCALAR","componentType":5123,"count":36576,"bufferView":1,"byteOffset":0},{"type":"SCALAR","componentType":5123,"count":21600,"bufferView":1,"byteOffset":73152},{"type":"VEC3","componentType":5126,"count":14400,"max":[18.894521713256836,68.51585388183594,23.563398361206055],"min":[-23.13638687133789,5.801879405975342,-20.71443748474121],"bufferView":2,"byteOffset":0},{"type":"VEC3","componentType":5126,"count":14400,"bufferView":2,"byteOffset":12},{"type":"VEC2","componentType":5126,"count":14400,"bufferView":2,"byteOffset":24}],"bufferViews":[{"buffer":0,"byteOffset":0,"byteLength":250144,"byteStride":32,"target":34962},{"buffer":0,"byteOffset":250144,"byteLength":116352,"target":34963},{"buffer":0,"byteOffset":366496,"byteLength":460800,"byteStride":32,"target":34962}],"samplers":[{"magFilter":9729,"minFilter":9987,"wrapS":10497,"wrapT":10497},{"magFilter":9729,"minFilter":9987,"wrapS":33071,"wrapT":33071}],"textures":[{"source":1,"sampler":0},{"source":2,"sampler":0},{"source":0,"sampler":0},{"source":3,"sampler":1}],"images":[{"mimeType":"image/png","uri":"texture-be24b5c0a3104eba.png"},{"mimeType":"image/png","uri":"texture-614ef034a298fef1.png"},{"mimeType":"image/png","uri":"texture-00e12de668fe6669.png"},{"mimeType":"image/png","uri":"texture-713a5cc87d11921a.png"}],"buffers":[{"uri":"pine-large.bin","byteLength":827296}],"materials":[{"name":"branches","pbrMetallicRoughness":{"metallicFactor":0,"baseColorTexture":{"index":0},"metallicRoughnessTexture":{"index":2}},"normalTexture":{"index":1}},{"name":"leaves","alphaMode":"MASK","alphaCutoff":0.3,"doubleSided":true,"pbrMetallicRoughness":{"metallicFactor":0,"baseColorTexture":{"index":3}}}],"meshes":[{"primitives":[{"attributes":{"POSITION":0,"NORMAL":1,"TEXCOORD_0":2},"mode":4,"material":0,"indices":3}]},{"primitives":[{"attributes":{"POSITION":5,"NORMAL":6,"TEXCOORD_0":7},"mode":4,"material":1,"indices":4}]}],"nodes":[{"name":"Tree","children":[1,2]},{"mesh":0},{"mesh":1}],"scenes":[{"name":"AuxScene","nodes":[0]}],"scene":0}