{"asset":{"generator":"glTF-Transform v4.2.1","version":"2.0"},"accessors":[{"type":"VEC3","componentType":5126,"count":178,"max":[0.955297589302063,1.0821900367736816,0.8493028283119202],"min":[-0.9993853569030762,-0.9761516451835632,-0.9092131853103638],"bufferView":0,"byteOffset":0},{"type":"VEC2","componentType":5126,"count":178,"bufferView":0,"byteOffset":12},{"type":"VEC3","componentType":5126,"count":178,"bufferView":0,"byteOffset":20},{"type":"SCALAR","componentType":5123,"count":504,"bufferView":1,"byteOffset":0}],"bufferViews":[{"buffer":0,"byteOffset":0,"byteLength":5696,"byteStride":32,"target":34962},{"buffer":0,"byteOffset":5696,"byteLength":1008,"target":34963}],"samplers":[{"magFilter":9729,"minFilter":9987,"wrapS":10497,"wrapT":10497}],"textures":[{"source":0,"sampler":0}],"images":[{"name":"forest_texture","mimeType":"image/png","uri":"forest_texture.png"}],"buffers":[{"uri":"kaykit-boulder-a.bin","byteLength":6704}],"materials":[{"name":"forest","pbrMetallicRoughness":{"roughnessFactor":0.6000000238418579,"metallicFactor":0,"baseColorTexture":{"index":0}}}],"meshes":[{"name":"Rock_3_H_Color1","primitives":[{"attributes":{"POSITION":0,"TEXCOORD_0":1,"NORMAL":2},"mode":4,"material":0,"indices":3}]}],"nodes":[{"name":"Rock_3_H_Color1","mesh":0}],"scenes":[{"name":"Scene","nodes":[0]}],"scene":0}