{"asset":{"generator":"glTF-Transform v4.2.1","version":"2.0"},"accessors":[{"type":"VEC3","componentType":5126,"count":192,"max":[1.092453956604004,1.7919158935546875,0.8453193306922913],"min":[-0.9150347113609314,0,-0.7491281032562256],"bufferView":0,"byteOffset":0},{"type":"VEC2","componentType":5126,"count":192,"bufferView":0,"byteOffset":12},{"type":"VEC3","componentType":5126,"count":192,"bufferView":0,"byteOffset":20},{"type":"SCALAR","componentType":5123,"count":1104,"bufferView":1,"byteOffset":0}],"bufferViews":[{"buffer":0,"byteOffset":0,"byteLength":6144,"byteStride":32,"target":34962},{"buffer":0,"byteOffset":6144,"byteLength":2208,"target":34963}],"samplers":[{"magFilter":9729,"minFilter":9987,"wrapS":10497,"wrapT":10497}],"textures":[{"source":0,"sampler":0}],"images":[{"name":"forest_texture","mimeType":"image/png","uri":"forest_texture.png"}],"buffers":[{"uri":"kaykit-bush-b.bin","byteLength":8352}],"materials":[{"name":"forest","pbrMetallicRoughness":{"roughnessFactor":0.6000000238418579,"metallicFactor":0,"baseColorTexture":{"index":0}}}],"meshes":[{"name":"Bush_2_F_Color1","primitives":[{"attributes":{"POSITION":0,"TEXCOORD_0":1,"NORMAL":2},"mode":4,"material":0,"indices":3}]}],"nodes":[{"name":"Bush_2_F_Color1","mesh":0}],"scenes":[{"name":"Scene","nodes":[0]}],"scene":0}