{"asset":{"generator":"glTF-Transform v4.2.1","version":"2.0"},"accessors":[{"type":"VEC3","componentType":5126,"count":167,"max":[0.9814987778663635,1.0854747295379639,0.9386882781982422],"min":[-0.9403740763664246,-1.023193359375,-0.7038726210594177],"bufferView":0,"byteOffset":0},{"type":"VEC2","componentType":5126,"count":167,"bufferView":0,"byteOffset":12},{"type":"VEC3","componentType":5126,"count":167,"bufferView":0,"byteOffset":20},{"type":"SCALAR","componentType":5123,"count":504,"bufferView":1,"byteOffset":0}],"bufferViews":[{"buffer":0,"byteOffset":0,"byteLength":5344,"byteStride":32,"target":34962},{"buffer":0,"byteOffset":5344,"byteLength":1008,"target":34963}],"samplers":[{"magFilter":9729,"minFilter":9987,"wrapS":10497,"wrapT":10497}],"textures":[{"source":0,"sampler":0}],"images":[{"name":"forest_texture","mimeType":"image/png","uri":"forest_texture.png"}],"buffers":[{"uri":"kaykit-boulder-b.bin","byteLength":6352}],"materials":[{"name":"forest","pbrMetallicRoughness":{"roughnessFactor":0.6000000238418579,"metallicFactor":0,"baseColorTexture":{"index":0}}}],"meshes":[{"name":"Rock_3_I_Color1","primitives":[{"attributes":{"POSITION":0,"TEXCOORD_0":1,"NORMAL":2},"mode":4,"material":0,"indices":3}]}],"nodes":[{"name":"Rock_3_I_Color1","mesh":0}],"scenes":[{"name":"Scene","nodes":[0]}],"scene":0}