{"asset":{"generator":"glTF-Transform v4.2.1","version":"2.0"},"accessors":[{"type":"VEC3","componentType":5126,"count":276,"max":[2.281832695007324,2.7569611072540283,1.8955509662628174],"min":[-1.4150302410125732,0.000008223018994613085,-1.4150203466415405],"bufferView":0,"byteOffset":0},{"type":"VEC2","componentType":5126,"count":276,"bufferView":0,"byteOffset":12},{"type":"VEC3","componentType":5126,"count":276,"bufferView":0,"byteOffset":20},{"type":"SCALAR","componentType":5123,"count":936,"bufferView":1,"byteOffset":0}],"bufferViews":[{"buffer":0,"byteOffset":0,"byteLength":8832,"byteStride":32,"target":34962},{"buffer":0,"byteOffset":8832,"byteLength":1872,"target":34963}],"samplers":[{"magFilter":9729,"minFilter":9987,"wrapS":10497,"wrapT":10497}],"textures":[{"source":0,"sampler":0}],"images":[{"name":"forest_texture","mimeType":"image/png","uri":"forest_texture.png"}],"buffers":[{"uri":"kaykit-rock-cluster-a.bin","byteLength":10704}],"materials":[{"name":"forest","pbrMetallicRoughness":{"roughnessFactor":0.6000000238418579,"metallicFactor":0,"baseColorTexture":{"index":0}}}],"meshes":[{"name":"Rock_2_H_Color1","primitives":[{"attributes":{"POSITION":0,"TEXCOORD_0":1,"NORMAL":2},"mode":4,"material":0,"indices":3}]}],"nodes":[{"name":"Rock_2_H_Color1","mesh":0}],"scenes":[{"name":"Scene","nodes":[0]}],"scene":0}