{"asset":{"generator":"glTF-Transform v4.2.1","version":"2.0"},"accessors":[{"type":"VEC3","componentType":5126,"count":672,"max":[0.5801786184310913,0.5463452339172363,0.5666427612304688],"min":[-0.5004293322563171,-0.04217022657394409,-0.6108884811401367],"bufferView":0,"byteOffset":0},{"type":"VEC2","componentType":5126,"count":672,"bufferView":0,"byteOffset":12},{"type":"VEC3","componentType":5126,"count":672,"bufferView":0,"byteOffset":20},{"type":"SCALAR","componentType":5123,"count":1584,"bufferView":1,"byteOffset":0}],"bufferViews":[{"buffer":0,"byteOffset":0,"byteLength":21504,"byteStride":32,"target":34962},{"buffer":0,"byteOffset":21504,"byteLength":3168,"target":34963}],"samplers":[{"magFilter":9729,"minFilter":9987,"wrapS":10497,"wrapT":10497}],"textures":[{"source":0,"sampler":0}],"images":[{"name":"forest_texture","mimeType":"image/png","uri":"forest_texture.png"}],"buffers":[{"uri":"kaykit-grass-cluster-a.bin","byteLength":24672}],"materials":[{"name":"forest","pbrMetallicRoughness":{"roughnessFactor":0.6000000238418579,"metallicFactor":0,"baseColorTexture":{"index":0}}}],"meshes":[{"name":"Grass_1_D_Color1","primitives":[{"attributes":{"POSITION":0,"TEXCOORD_0":1,"NORMAL":2},"mode":4,"material":0,"indices":3}]}],"nodes":[{"name":"Grass_1_D_Color1","mesh":0}],"scenes":[{"name":"Scene","nodes":[0]}],"scene":0}