{"asset":{"generator":"glTF-Transform v4.2.1","version":"2.0"},"accessors":[{"type":"VEC3","componentType":5126,"count":690,"max":[1.4728124141693115,0.9784849286079407,0.882437527179718],"min":[-1.6312594413757324,-0.01525149866938591,-0.865624189376831],"bufferView":0,"byteOffset":0},{"type":"VEC2","componentType":5126,"count":690,"bufferView":0,"byteOffset":12},{"type":"VEC3","componentType":5126,"count":690,"bufferView":0,"byteOffset":20},{"type":"SCALAR","componentType":5123,"count":2952,"bufferView":1,"byteOffset":0}],"bufferViews":[{"buffer":0,"byteOffset":0,"byteLength":22080,"byteStride":32,"target":34962},{"buffer":0,"byteOffset":22080,"byteLength":5904,"target":34963}],"samplers":[{"magFilter":9729,"minFilter":9987,"wrapS":10497,"wrapT":10497}],"textures":[{"source":0,"sampler":0}],"images":[{"name":"forest_texture","mimeType":"image/png","uri":"forest_texture.png"}],"buffers":[{"uri":"kaykit-bush-a.bin","byteLength":27984}],"materials":[{"name":"forest","pbrMetallicRoughness":{"roughnessFactor":0.6000000238418579,"metallicFactor":0,"baseColorTexture":{"index":0}}}],"meshes":[{"name":"Bush_1_G_Color1","primitives":[{"attributes":{"POSITION":0,"TEXCOORD_0":1,"NORMAL":2},"mode":4,"material":0,"indices":3}]}],"nodes":[{"name":"Bush_1_G_Color1","mesh":0}],"scenes":[{"name":"Scene","nodes":[0]}],"scene":0}