{"asset":{"generator":"glTF-Transform v4.2.1","version":"2.0"},"accessors":[{"type":"VEC3","componentType":5126,"count":475,"max":[2.217304229736328,4.588586807250977,1.722744107246399],"min":[-1.7895218133926392,-0.3410367965698242,-1.7227431535720825],"bufferView":0,"byteOffset":0},{"type":"VEC2","componentType":5126,"count":475,"bufferView":0,"byteOffset":12},{"type":"VEC3","componentType":5126,"count":475,"bufferView":0,"byteOffset":20},{"type":"SCALAR","componentType":5123,"count":1908,"bufferView":1,"byteOffset":0}],"bufferViews":[{"buffer":0,"byteOffset":0,"byteLength":15200,"byteStride":32,"target":34962},{"buffer":0,"byteOffset":15200,"byteLength":3816,"target":34963}],"samplers":[{"magFilter":9729,"minFilter":9987,"wrapS":10497,"wrapT":10497}],"textures":[{"source":0,"sampler":0}],"images":[{"name":"forest_texture","mimeType":"image/png","uri":"forest_texture.png"}],"buffers":[{"uri":"kaykit-deciduous-a.bin","byteLength":19016}],"materials":[{"name":"forest","pbrMetallicRoughness":{"roughnessFactor":0.6000000238418579,"metallicFactor":0,"baseColorTexture":{"index":0}}}],"meshes":[{"name":"Tree_1_B_Color1","primitives":[{"attributes":{"POSITION":0,"TEXCOORD_0":1,"NORMAL":2},"mode":4,"material":0,"indices":3}]}],"nodes":[{"name":"Tree_1_B_Color1","mesh":0}],"scenes":[{"name":"Scene","nodes":[0]}],"scene":0}