{"asset":{"generator":"glTF-Transform v4.2.1","version":"2.0"},"accessors":[{"type":"VEC3","componentType":5126,"count":123,"max":[0.42677390575408936,0.393566370010376,0.39257872104644775],"min":[-0.5295201539993286,-0.465302437543869,-0.4149000942707062],"bufferView":0,"byteOffset":0},{"type":"VEC2","componentType":5126,"count":123,"bufferView":0,"byteOffset":12},{"type":"VEC3","componentType":5126,"count":123,"bufferView":0,"byteOffset":20},{"type":"SCALAR","componentType":5123,"count":252,"bufferView":1,"byteOffset":0}],"bufferViews":[{"buffer":0,"byteOffset":0,"byteLength":3936,"byteStride":32,"target":34962},{"buffer":0,"byteOffset":3936,"byteLength":504,"target":34963}],"samplers":[{"magFilter":9729,"minFilter":9987,"wrapS":10497,"wrapT":10497}],"textures":[{"source":0,"sampler":0}],"images":[{"name":"forest_texture","mimeType":"image/png","uri":"forest_texture.png"}],"buffers":[{"uri":"kaykit-rock-small-a.bin","byteLength":4440}],"materials":[{"name":"forest","pbrMetallicRoughness":{"roughnessFactor":0.6000000238418579,"metallicFactor":0,"baseColorTexture":{"index":0}}}],"meshes":[{"name":"Rock_3_A_Color1","primitives":[{"attributes":{"POSITION":0,"TEXCOORD_0":1,"NORMAL":2},"mode":4,"material":0,"indices":3}]}],"nodes":[{"name":"Rock_3_A_Color1","mesh":0}],"scenes":[{"name":"Scene","nodes":[0]}],"scene":0}