{"asset":{"generator":"glTF-Transform v4.2.1","version":"2.0"},"accessors":[{"type":"VEC3","componentType":5126,"count":405,"max":[1.3307642936706543,6.566202163696289,0.9238723516464233],"min":[-1.2432444095611572,-0.3763887882232666,-1.346378207206726],"bufferView":0,"byteOffset":0},{"type":"VEC2","componentType":5126,"count":405,"bufferView":0,"byteOffset":12},{"type":"VEC3","componentType":5126,"count":405,"bufferView":0,"byteOffset":20},{"type":"SCALAR","componentType":5123,"count":1566,"bufferView":1,"byteOffset":0}],"bufferViews":[{"buffer":0,"byteOffset":0,"byteLength":12960,"byteStride":32,"target":34962},{"buffer":0,"byteOffset":12960,"byteLength":3132,"target":34963}],"samplers":[{"magFilter":9729,"minFilter":9987,"wrapS":10497,"wrapT":10497}],"textures":[{"source":0,"sampler":0}],"images":[{"name":"forest_texture","mimeType":"image/png","uri":"forest_texture.png"}],"buffers":[{"uri":"kaykit-conifer-b.bin","byteLength":16092}],"materials":[{"name":"forest","pbrMetallicRoughness":{"roughnessFactor":0.6000000238418579,"metallicFactor":0,"baseColorTexture":{"index":0}}}],"meshes":[{"name":"Tree_4_B_Color1","primitives":[{"attributes":{"POSITION":0,"TEXCOORD_0":1,"NORMAL":2},"mode":4,"material":0,"indices":3}]}],"nodes":[{"name":"Tree_4_B_Color1","mesh":0}],"scenes":[{"name":"Scene","nodes":[0]}],"scene":0}