{"asset":{"generator":"glTF-Transform v4.2.1","version":"2.0"},"accessors":[{"type":"VEC3","componentType":5126,"count":127,"max":[0.39966681599617004,0.501471221446991,0.42822471261024475],"min":[-0.41949769854545593,-0.5262008309364319,-0.41853412985801697],"bufferView":0,"byteOffset":0},{"type":"VEC2","componentType":5126,"count":127,"bufferView":0,"byteOffset":12},{"type":"VEC3","componentType":5126,"count":127,"bufferView":0,"byteOffset":20},{"type":"SCALAR","componentType":5123,"count":252,"bufferView":1,"byteOffset":0}],"bufferViews":[{"buffer":0,"byteOffset":0,"byteLength":4064,"byteStride":32,"target":34962},{"buffer":0,"byteOffset":4064,"byteLength":504,"target":34963}],"samplers":[{"magFilter":9729,"minFilter":9987,"wrapS":10497,"wrapT":10497}],"textures":[{"source":0,"sampler":0}],"images":[{"name":"forest_texture","mimeType":"image/png","uri":"forest_texture.png"}],"buffers":[{"uri":"kaykit-rock-small-b.bin","byteLength":4568}],"materials":[{"name":"forest","pbrMetallicRoughness":{"roughnessFactor":0.6000000238418579,"metallicFactor":0,"baseColorTexture":{"index":0}}}],"meshes":[{"name":"Rock_3_B_Color1","primitives":[{"attributes":{"POSITION":0,"TEXCOORD_0":1,"NORMAL":2},"mode":4,"material":0,"indices":3}]}],"nodes":[{"name":"Rock_3_B_Color1","mesh":0}],"scenes":[{"name":"Scene","nodes":[0]}],"scene":0}