{"asset":{"generator":"glTF-Transform v4.2.1","version":"2.0"},"accessors":[{"type":"VEC3","componentType":5126,"count":845,"max":[0.9875974655151367,4.277825355529785,1.3010849952697754],"min":[-1.228674054145813,-0.0000040054324017546605,-1.4960166215896606],"bufferView":0,"byteOffset":0},{"type":"VEC2","componentType":5126,"count":845,"bufferView":0,"byteOffset":12},{"type":"VEC3","componentType":5126,"count":845,"bufferView":0,"byteOffset":20},{"type":"SCALAR","componentType":5123,"count":1491,"bufferView":1,"byteOffset":0}],"bufferViews":[{"buffer":0,"byteOffset":0,"byteLength":27040,"byteStride":32,"target":34962},{"buffer":0,"byteOffset":27040,"byteLength":2984,"target":34963}],"samplers":[{"magFilter":9729,"minFilter":9987,"wrapS":10497,"wrapT":10497}],"textures":[{"source":0,"sampler":0}],"images":[{"name":"forest_texture","mimeType":"image/png","uri":"forest_texture.png"}],"buffers":[{"uri":"kaykit-rock-cluster-b.bin","byteLength":30024}],"materials":[{"name":"forest","pbrMetallicRoughness":{"roughnessFactor":0.6000000238418579,"metallicFactor":0,"baseColorTexture":{"index":0}}}],"meshes":[{"name":"Rock_1_Q_Color1","primitives":[{"attributes":{"POSITION":0,"TEXCOORD_0":1,"NORMAL":2},"mode":4,"material":0,"indices":3}]}],"nodes":[{"name":"Rock_1_Q_Color1","mesh":0}],"scenes":[{"name":"Scene","nodes":[0]}],"scene":0}