{"asset":{"generator":"glTF-Transform v4.2.1","version":"2.0"},"accessors":[{"type":"VEC3","componentType":5126,"count":317,"max":[1.0473434925079346,4.932270050048828,0.9846721291542053],"min":[-0.9600079655647278,-0.34212493896484375,-1.0196812152862549],"bufferView":0,"byteOffset":0},{"type":"VEC2","componentType":5126,"count":317,"bufferView":0,"byteOffset":12},{"type":"VEC3","componentType":5126,"count":317,"bufferView":0,"byteOffset":20},{"type":"SCALAR","componentType":5123,"count":1212,"bufferView":1,"byteOffset":0}],"bufferViews":[{"buffer":0,"byteOffset":0,"byteLength":10144,"byteStride":32,"target":34962},{"buffer":0,"byteOffset":10144,"byteLength":2424,"target":34963}],"samplers":[{"magFilter":9729,"minFilter":9987,"wrapS":10497,"wrapT":10497}],"textures":[{"source":0,"sampler":0}],"images":[{"name":"forest_texture","mimeType":"image/png","uri":"forest_texture.png"}],"buffers":[{"uri":"kaykit-conifer-c.bin","byteLength":12568}],"materials":[{"name":"forest","pbrMetallicRoughness":{"roughnessFactor":0.6000000238418579,"metallicFactor":0,"baseColorTexture":{"index":0}}}],"meshes":[{"name":"Tree_4_A_Color1","primitives":[{"attributes":{"POSITION":0,"TEXCOORD_0":1,"NORMAL":2},"mode":4,"material":0,"indices":3}]}],"nodes":[{"name":"Tree_4_A_Color1","mesh":0}],"scenes":[{"name":"Scene","nodes":[0]}],"scene":0}