{"asset":{"generator":"glTF-Transform v4.2.1","version":"2.0"},"accessors":[{"type":"VEC3","componentType":5126,"count":789,"max":[2.004253625869751,10.417509078979492,1.3217493295669556],"min":[-1.7309060096740723,-0.3565221428871155,-1.5473430156707764],"bufferView":0,"byteOffset":0},{"type":"VEC2","componentType":5126,"count":789,"bufferView":0,"byteOffset":12},{"type":"VEC3","componentType":5126,"count":789,"bufferView":0,"byteOffset":20},{"type":"SCALAR","componentType":5123,"count":2946,"bufferView":1,"byteOffset":0}],"bufferViews":[{"buffer":0,"byteOffset":0,"byteLength":25248,"byteStride":32,"target":34962},{"buffer":0,"byteOffset":25248,"byteLength":5892,"target":34963}],"samplers":[{"magFilter":9729,"minFilter":9987,"wrapS":10497,"wrapT":10497}],"textures":[{"source":0,"sampler":0}],"images":[{"name":"forest_texture","mimeType":"image/png","uri":"forest_texture.png"}],"buffers":[{"uri":"kaykit-conifer-a.bin","byteLength":31140}],"materials":[{"name":"forest","pbrMetallicRoughness":{"roughnessFactor":0.6000000238418579,"metallicFactor":0,"baseColorTexture":{"index":0}}}],"meshes":[{"name":"Tree_4_C_Color1","primitives":[{"attributes":{"POSITION":0,"TEXCOORD_0":1,"NORMAL":2},"mode":4,"material":0,"indices":3}]}],"nodes":[{"name":"Tree_4_C_Color1","mesh":0}],"scenes":[{"name":"Scene","nodes":[0]}],"scene":0}